# xmcd
#
# Track frame offsets:
#	182
#	15070
#	26017
#	39732
#	56692
#	69355
#	88150
#	99922
#	115972
#	131905
#	150152
#	164302
#	180925
#	194630
#	207170
#
# Disc length: 2934 seconds
#
# Revision: 1
# Processed by: cddbd v1.5.1PL2 Copyright (c) Steve Scherf et al.
# Submitted via: EasyCDDAExtractor 9.0.0.1
#
DISCID=bc0b740f
DTITLE=Various Artist - il meglio di sanremo
DYEAR=1900
DGENRE=Blues
TTITLE0=G.CIinquetti (panzeri and nisa) - Non ho l'età
TTITLE1=P.Anka (rossi and robifer) - Ogni volta
TTITLE2=G.Paoli (paoli) - Un uomo vivo
TTITLE3=T.Renis (mogol and testa 6 renis) - Uno per tutte
TTITLE4=D.Modugno (modugno and migliacci) - Libero
TTITLE5=B.Curtis (donida and mogol) - Al di la
TTITLE6=C.Villa (malgoni and pallesi and pinchi) - Amour mon amour my love
TTITLE7=C.Jaione (paolillo) - Era un omino (piccino piccino)
TTITLE8=L.Gonzales (calcagno and oliviero) - La vita e un paradiso di bugie
TTITLE9=A.Testa (testoni and fanciulli) - Io sono il vento
TTITLE10=N.Otto (calcagno and marini) - Avevamo la stessa età
TTITLE11=C.Villa (migliacci and modugno) - Addio..addio
TTITLE12=C.Mazzetti (donaggio and testa) - Giovane giovane
TTITLE13=M.Abbate (cazzoli and testa) - Vestita di rosso
TTITLE14=M.Monti (gaber) - Benzina e cerini
EXTD=
EXTT0=
EXTT1=
EXTT2=
EXTT3=
EXTT4=
EXTT5=
EXTT6=
EXTT7=
EXTT8=
EXTT9=
EXTT10=
EXTT11=
EXTT12=
EXTT13=
EXTT14=
PLAYORDER=
